<svg width="63" height="150" viewBox="0 0 63 150" fill="none" xmlns="http://www.w3.org/2000/svg">
<path d="M46.4705 17.7851L21.7207 20.7L24.485 44.1683L49.2348 41.2535L46.4705 17.7851Z" fill="#2F2E41"/>
<path d="M33.8208 31.3134C40.5316 31.3134 45.9717 25.8735 45.9717 19.1632C45.9717 12.4528 40.5316 7.01294 33.8208 7.01294C27.1101 7.01294 21.6699 12.4528 21.6699 19.1632C21.6699 25.8735 27.1101 31.3134 33.8208 31.3134Z" fill="#FFB6B6"/>
<path d="M25.8095 0.318018C18.2374 2.42004 18.9427 5.24249 16.6483 7.02099C12.6061 10.1543 11.781 17.925 14.667 22.6487C15.4382 23.9108 16.947 25.5787 16.5503 27.6183C16.2458 29.1839 14.9604 30.2378 14.7183 30.4297C12.7368 32.0008 13.9477 30.2668 13.1119 31.4841C12.1894 32.8278 14.0434 34.3541 13.2883 36.6548C12.6189 38.6944 10.75 38.749 10.6531 39.9935C10.486 42.1364 15.7302 45.7878 20.7445 44.8616C25.2091 44.0369 28.1036 39.8396 28.801 36.1256C29.2682 33.6378 29.1053 29.4723 26.9424 27.6922C26.639 27.4425 25.8201 26.8479 24.9842 25.7597C24.3228 24.8986 23.452 23.7651 23.7789 22.8734C24.1272 21.9233 25.4698 22.2437 26.1885 21.2917C27.1632 20.0007 25.6119 18.1963 25.5854 16.1714C25.5405 12.7425 29.8602 8.10347 35.0225 8.13803C40.8789 8.17719 43.7352 14.2037 44.0349 14.8637C44.6563 16.2317 44.8092 17.608 45.115 20.3605C45.554 24.3106 45.829 26.7864 44.8903 29.4719C43.5401 33.3345 41.2253 33.207 40.9 35.9985C40.3929 40.3509 45.6256 44.0459 46.2227 44.4566C50.6496 47.5014 56.8346 47.8452 57.6693 46.1368C58.4213 44.5974 54.1174 42.8473 53.7273 38.3814C53.3892 34.5112 56.3719 32.968 55.3829 30.3993C54.2945 27.5716 50.3968 28.705 48.3288 25.606C46.3985 22.7135 49.0867 20.6659 47.8755 14.4114C47.6192 13.0883 46.7488 9.30698 43.833 5.80253C42.5484 4.25863 41.2419 2.68843 39.0631 2.03813C36.6241 1.31012 29.8149 -0.79387 25.8095 0.318018Z" fill="#2F2E41"/>
<path d="M21.9454 11.5885C22.5697 14.1939 26.6901 15.0215 28.4221 15.1519C29.1556 15.2071 31.6344 15.3938 33.9192 14.0719C34.7637 13.5832 35.0469 13.198 35.9523 12.9672C37.1779 12.6548 37.8611 13.0545 39.8933 13.3683C42.153 13.7172 43.2829 13.8917 43.784 13.3427C44.6032 12.4452 43.598 9.94308 42.3275 8.3228C39.9783 5.3268 36.2562 4.75174 34.5203 4.48349C32.537 4.17703 28.5124 3.55514 25.1827 6.01583C24.7376 6.34481 21.3111 8.9414 21.9454 11.5885Z" fill="#2F2E41"/>
<path d="M48.0438 147.766C42.0183 149.227 35.7237 150 29.2497 150C22.2374 150 15.4335 149.094 8.95655 147.387C8.2504 144.774 7.44874 141.88 6.54002 138.679C-1.61257 109.94 14.9038 89.5638 14.9038 89.5638L18.9787 86.3486L55.658 91.2798C59.9268 112.09 57.1485 127.532 48.0438 147.766Z" fill="#2F2E41"/>
<path d="M42.0689 34.6586L24.9098 32.9427L12.4695 43.6666L16.3303 82.2724L14.6144 89.5647L55.3672 91.2805L53.2223 80.9856L56.2252 43.2376L42.0689 34.6586Z" fill="#0891B2"/>
<path d="M47.6457 54.8195H20.1912V97.7148H47.6457V54.8195Z" fill="white"/>
<path d="M43.7282 60.4627H36.0569C35.8495 60.4627 35.6807 60.2939 35.6807 60.0865C35.6807 59.879 35.8495 59.7102 36.0569 59.7102H43.7282C43.9357 59.7102 44.1045 59.879 44.1045 60.0865C44.1045 60.2939 43.9357 60.4627 43.7282 60.4627Z" fill="#0891B2"/>
<path d="M43.7282 63.3567H36.0569C35.8495 63.3567 35.6807 63.1879 35.6807 62.9804C35.6807 62.7729 35.8495 62.6041 36.0569 62.6041H43.7282C43.9357 62.6041 44.1045 62.7729 44.1045 62.9804C44.1045 63.1879 43.9357 63.3567 43.7282 63.3567Z" fill="#0891B2"/>
<path d="M43.7282 66.2506H36.0569C35.8495 66.2506 35.6807 66.0818 35.6807 65.8743C35.6807 65.6668 35.8495 65.498 36.0569 65.498H43.7282C43.9357 65.498 44.1045 65.6668 44.1045 65.8743C44.1045 66.0818 43.9357 66.2506 43.7282 66.2506Z" fill="#0891B2"/>
<path d="M43.3838 76.3792H24.7299C24.2254 76.3792 23.8149 75.9688 23.8149 75.4643C23.8149 74.9598 24.2254 74.5493 24.7299 74.5493H43.3838C43.8884 74.5493 44.2988 74.9598 44.2988 75.4643C44.2988 75.9688 43.8884 76.3792 43.3838 76.3792Z" fill="#E6E6E6"/>
<path d="M32.8898 93.0396C36.6013 94.2028 40.2101 93.2307 40.95 90.8687C41.6899 88.5066 39.281 85.6496 35.5679 84.4865C34.0911 84.0016 32.5196 83.8773 30.9849 84.1242L15.1968 79.3943L5.17688 86.562L28.9182 90.7214C30.0379 91.8002 31.3998 92.5951 32.8898 93.0396Z" fill="#FFB6B6"/>
<path d="M14.0865 42.8087C14.0865 42.8087 8.33424 46.0956 6.69074 53.0801L0.116699 81.0182C0.116699 81.0182 -1.11593 85.1267 4.43091 87.181C9.97775 89.2353 16.7572 80.4019 16.7572 80.4019L13.6611 77.306L19.6334 51.2312L14.0865 42.8087Z" fill="#0891B2"/>
<path d="M28.6105 88.9103C24.752 89.401 21.3713 87.8079 21.0594 85.3524C20.7476 82.8969 23.6225 80.5094 27.4824 80.0191C29.0216 79.8021 30.5904 79.9568 32.0575 80.4704L48.4323 78.598L57.0314 87.42L32.9286 87.3286C31.6363 88.1931 30.1556 88.7355 28.6105 88.9103Z" fill="#FFB6B6"/>
<path d="M55.976 42.7812C55.976 42.7812 61.0586 47.0307 61.4449 54.1956L62.9899 82.855C62.9899 82.855 63.4789 87.1165 57.6567 88.1607C51.8345 89.2049 46.7188 79.3147 46.7188 79.3147L50.3123 76.8131L49.031 50.0939L55.976 42.7812Z" fill="#0891B2"/>
<path d="M33.0605 57.8221H23.194V69.8329H33.0605V57.8221Z" fill="#0891B2"/>
<path d="M25.8279 66.7872L25.1501 69.7556L25.1329 69.8328H23.2025C23.4342 68.8548 23.7216 67.6451 23.8545 67.0661C24.0219 66.3626 24.4594 65.9079 24.7382 65.6806C24.8798 65.5561 24.9828 65.5004 24.9828 65.5004L25.8279 66.7872Z" fill="#E6E6E6"/>
<path d="M32.344 69.8328H30.4651L30.3107 66.6114L31.3402 65.5261L31.3702 65.4961C31.3702 65.4961 32.1467 66.1438 32.2024 67.2376C32.2325 67.7824 32.2925 68.8762 32.344 69.8328Z" fill="#E6E6E6"/>
<path d="M29.9077 61.6831L26.5518 62.0784L26.9266 65.2606L30.2825 64.8653L29.9077 61.6831Z" fill="#2F2E41"/>
<path d="M28.1925 63.5176C29.1025 63.5176 29.8401 62.7799 29.8401 61.87C29.8401 60.9602 29.1025 60.2225 28.1925 60.2225C27.2826 60.2225 26.5449 60.9602 26.5449 61.87C26.5449 62.7799 27.2826 63.5176 28.1925 63.5176Z" fill="#FFB6B6"/>
<path d="M27.1062 59.3147C26.0795 59.5998 26.1751 59.9825 25.864 60.2236C25.3159 60.6485 25.204 61.7021 25.5953 62.3427C25.6999 62.5138 25.9045 62.74 25.8507 63.0165C25.8094 63.2288 25.6351 63.3717 25.6023 63.3977C25.3336 63.6108 25.4978 63.3756 25.3845 63.5407C25.2594 63.7229 25.5108 63.9299 25.4084 64.2418C25.3176 64.5184 25.0642 64.5258 25.0511 64.6945C25.0284 64.9851 25.7395 65.4802 26.4194 65.3546C27.0248 65.2428 27.4173 64.6737 27.5118 64.1701C27.5752 63.8327 27.5531 63.2679 27.2598 63.0265C27.2187 62.9927 27.1076 62.9121 26.9943 62.7645C26.9046 62.6477 26.7865 62.494 26.8309 62.3731C26.8781 62.2443 27.0601 62.2877 27.1576 62.1587C27.2898 61.9836 27.0794 61.7389 27.0758 61.4644C27.0697 60.9994 27.6555 60.3704 28.3555 60.3751C29.1495 60.3804 29.5368 61.1976 29.5775 61.2871C29.6617 61.4726 29.6825 61.6592 29.7239 62.0324C29.7835 62.568 29.8208 62.9037 29.6935 63.2679C29.5104 63.7916 29.1965 63.7743 29.1524 64.1528C29.0836 64.743 29.7932 65.244 29.8741 65.2997C30.4744 65.7126 31.3131 65.7592 31.4262 65.5275C31.5282 65.3188 30.9446 65.0815 30.8917 64.4759C30.8459 63.9512 31.2503 63.7419 31.1162 63.3936C30.9686 63.0102 30.4401 63.1639 30.1597 62.7437C29.898 62.3515 30.2625 62.0738 30.0982 61.2257C30.0635 61.0463 29.9455 60.5336 29.5501 60.0584C29.3759 59.8491 29.1988 59.6361 28.9033 59.548C28.5726 59.4493 27.6493 59.164 27.1062 59.3147Z" fill="#2F2E41"/>
<path d="M26.5822 60.843C26.6669 61.1962 27.2256 61.3085 27.4604 61.3261C27.5599 61.3336 27.896 61.3589 28.2058 61.1797C28.3203 61.1134 28.3588 61.0612 28.4815 61.0299C28.6477 60.9875 28.7403 61.0417 29.0159 61.0843C29.3223 61.1316 29.4755 61.1553 29.5435 61.0808C29.6545 60.9591 29.5182 60.6198 29.346 60.4001C29.0274 59.9939 28.5227 59.9159 28.2873 59.8796C28.0184 59.838 27.4727 59.7537 27.0212 60.0873C26.9608 60.1319 26.4962 60.484 26.5822 60.843Z" fill="#2F2E41"/>
<path d="M31.4089 65.569L31.07 69.8328H25.1544L25.1501 69.7556L24.7383 65.6805L24.734 65.6333L25.9866 64.5567L26.3727 64.2221L26.6344 63.999L27.3079 64.0677L29.2468 64.2607H29.2511L29.9032 64.6553L30.8769 65.2473L31.3402 65.5261L31.4089 65.569Z" fill="#E6E6E6"/>
</svg>
