<svg width="93" height="146" viewBox="0 0 93 146" fill="none" xmlns="http://www.w3.org/2000/svg">
<path d="M63.268 33.7115C71.0028 33.7115 77.273 27.4361 77.273 19.695C77.273 11.954 71.0028 5.67859 63.268 5.67859C55.5333 5.67859 49.2631 11.954 49.2631 19.695C49.2631 27.4361 55.5333 33.7115 63.268 33.7115Z" fill="#2F2E41"/>
<path d="M28.4148 139.622H22.2812L19.3638 115.95H28.4141L28.4148 139.622Z" fill="#FEB8B8"/>
<path d="M17.9028 137.868H29.7289V145.32H10.4565C10.4565 143.344 11.241 141.448 12.6374 140.05C14.0339 138.653 15.9279 137.868 17.9028 137.868Z" fill="#2F2E41"/>
<path d="M18.8424 136.196L12.9919 134.359L17.2898 110.898L25.9246 113.61L18.8424 136.196Z" fill="#FEB8B8"/>
<path d="M9.3339 131.374L20.6178 134.918L18.3882 142.028L0 136.253C0.292794 135.319 0.766486 134.452 1.39404 133.702C2.02159 132.951 2.7907 132.332 3.65747 131.879C4.52423 131.426 5.47168 131.148 6.4457 131.061C7.41973 130.975 8.40126 131.081 9.33426 131.374L9.3339 131.374Z" fill="#2F2E41"/>
<path d="M20.8376 126.75C20.5697 126.75 20.3039 126.702 20.0531 126.608L15.5403 124.915C15.0338 124.723 14.613 124.355 14.3547 123.879C14.0963 123.403 14.0176 122.849 14.1327 122.32C15.2685 117.209 19.1395 99.8078 21.2591 90.4746C23.7729 79.404 60.4448 77.3469 62.0046 77.2648L62.1329 77.258L66.2582 82.4441C67.7488 87.2394 67.2763 90.9796 64.8539 93.5614C57.7849 101.094 36.6799 96.4198 34.1633 95.8284L22.9463 125.3C22.7828 125.727 22.4938 126.094 22.1176 126.353C21.7413 126.612 21.2954 126.75 20.8387 126.75H20.8376Z" fill="#2F2E41"/>
<path d="M27.34 130.255C27.072 130.255 26.8063 130.206 26.5555 130.112L22.044 128.419C21.5375 128.227 21.1167 127.859 20.8584 127.383C20.6 126.907 20.5213 126.353 20.6365 125.824C21.7723 120.713 25.6433 103.312 27.7629 93.9786C30.2766 82.908 66.9486 80.8508 68.5083 80.7687L68.6367 80.762L72.7605 85.9495C74.2511 90.7448 73.7786 94.4851 71.3562 97.0669C64.2876 104.597 43.1822 99.9252 40.6656 99.3335L29.4472 128.804C29.2837 129.231 28.9948 129.598 28.6185 129.857C28.2422 130.116 27.7963 130.254 27.3396 130.254L27.34 130.255Z" fill="#2F2E41"/>
<path d="M14.2879 58.1583C14.4535 58.3802 14.6015 58.6148 14.7304 58.8599L39.3997 61.461L42.9515 56.5879L50.9997 60.9902L44.0249 72.8149L13.7701 65.0945C13.0067 65.8394 12.0349 66.3339 10.9839 66.5125C9.93287 66.6911 8.85242 66.5452 7.88625 66.0943C6.92008 65.6433 6.11397 64.9087 5.57515 63.988C5.03633 63.0674 4.79033 62.0044 4.86986 60.9404C4.94939 59.8765 5.35069 58.8619 6.02038 58.0318C6.69007 57.2016 7.59641 56.5952 8.61887 56.2931C9.64133 55.9911 10.7314 56.0077 11.7442 56.3408C12.757 56.6739 13.6445 57.3077 14.2886 58.1579L14.2879 58.1583Z" fill="#FEB8B8"/>
<path d="M71.6155 87.9353C71.2588 87.9344 70.9074 87.8488 70.5902 87.6854C65.6573 85.175 56.0518 80.8276 47.1445 79.9179C46.8397 79.888 46.5444 79.7947 46.2778 79.6438C46.0111 79.493 45.7789 79.288 45.5961 79.0421C45.4097 78.7935 45.2765 78.5092 45.2048 78.2069C45.1331 77.9045 45.1244 77.5906 45.1792 77.2847C45.983 72.8317 47.8267 61.4924 47.5892 52.4047C47.5192 49.6104 48.4013 46.8755 50.0904 44.6496C51.7795 42.4236 54.1751 40.839 56.8834 40.1563C58.5134 39.7259 60.169 39.3992 61.8402 39.1781C63.7616 38.9345 65.7134 39.1448 67.539 39.7919C69.3647 40.439 71.0135 41.5051 72.3535 42.9046C73.6935 44.3042 74.6873 45.9984 75.2554 47.8515C75.8234 49.7047 75.95 51.6652 75.6248 53.576C74.0365 62.9938 72.435 76.1477 73.8268 85.3299C73.8907 85.7415 73.8396 86.1627 73.679 86.547C73.5184 86.9312 73.2547 87.2635 72.9171 87.507C72.5393 87.7838 72.0837 87.9337 71.6155 87.9353Z" fill="#CCCCCC"/>
<path d="M48.0459 63.981C47.7384 63.9805 47.4343 63.917 47.1523 63.7943L40.7259 61.0106C40.1785 60.7727 39.7477 60.3272 39.5281 59.7719C39.3085 59.2165 39.318 58.5967 39.5544 58.0483L44.522 46.5637C44.817 45.8678 45.2462 45.2368 45.7849 44.7069C46.3236 44.177 46.9613 43.7584 47.6617 43.4752C48.362 43.1919 49.1112 43.0494 49.8666 43.056C50.6219 43.0625 51.3686 43.2178 52.064 43.5132C52.7593 43.8085 53.3897 44.238 53.9192 44.7771C54.4487 45.3163 54.8669 45.9545 55.15 46.6555C55.433 47.3564 55.5753 48.1062 55.5688 48.8622C55.5623 49.6181 55.4071 50.3654 55.112 51.0613C55.1013 51.0866 55.0904 51.1118 55.0793 51.137L50.1117 62.622C49.9369 63.0251 49.6483 63.3684 49.2813 63.6098C48.9144 63.8512 48.4851 63.9802 48.0459 63.981Z" fill="#CCCCCC"/>
<path d="M62.7563 35.2711C69.5412 35.2711 75.0414 29.7664 75.0414 22.976C75.0414 16.1856 69.5412 10.6809 62.7563 10.6809C55.9715 10.6809 50.4713 16.1856 50.4713 22.976C50.4713 29.7664 55.9715 35.2711 62.7563 35.2711Z" fill="#FEB8B8"/>
<path d="M50.2501 16.9341C56.0691 20.4892 62.6293 22.6526 69.4202 23.2558L67.3993 20.8328C68.8706 21.3773 70.4188 21.6849 71.9863 21.7444C72.7712 21.7671 73.5504 21.6055 74.2616 21.2723C74.9727 20.9392 75.596 20.4438 76.0812 19.826C76.4774 19.1848 76.7127 18.4572 76.7672 17.7052C76.8216 16.9533 76.6936 16.1993 76.394 15.5076C75.7782 14.1274 74.8198 12.9279 73.6099 12.0232C71.4653 10.3253 68.9343 9.18479 66.2425 8.70331C63.5506 8.22183 60.7816 8.41433 58.1821 9.26365C56.3989 9.79696 54.8019 10.8222 53.574 12.222C52.4094 13.6599 50.1674 14.9412 50.7636 16.6932L50.2501 16.9341Z" fill="#2F2E41"/>
<path d="M63.8547 6.57657C66.3034 4.09076 69.2668 2.17237 72.5362 0.956501C74.6114 0.0827969 76.8875 -0.199924 79.1131 0.139562C81.3073 0.581401 83.382 2.10036 83.9943 4.25495C84.4936 6.0166 83.9779 7.9135 83.2012 9.57272C82.4246 11.2319 81.3876 12.7691 80.7592 14.4893C80.1182 16.2446 79.9254 18.1324 80.1983 19.9812C80.4712 21.83 81.2012 23.5813 82.322 25.0761C83.4427 26.5709 84.9188 27.7619 86.6161 28.541C88.3135 29.32 90.1784 29.6625 92.0415 29.5372C89.8858 29.8267 87.8988 30.8406 85.7916 31.3799C83.6845 31.9191 81.1975 31.8831 79.6316 30.372C77.9748 28.7734 77.9417 26.1745 78.0219 23.8729L78.3785 13.6078C78.4391 11.8629 78.4912 10.062 77.8622 8.43279C77.2331 6.80355 75.7389 5.37775 73.9944 5.39274C72.6721 5.4038 71.5021 6.20575 70.4415 6.99628C69.381 7.78681 68.2588 8.63016 66.9418 8.74793C65.6249 8.86571 64.1211 7.89138 64.2195 6.57086" fill="#2F2E41"/>
<path d="M42.102 84.7768C41.2881 84.7757 40.4844 84.5941 39.749 84.2448C39.0137 83.8956 38.3648 83.3874 37.8493 82.757C37.3338 82.1266 36.9644 81.3895 36.7677 80.599C36.571 79.8085 36.552 78.9842 36.712 78.1854C36.8719 77.3867 37.2069 76.6334 37.6928 75.9798C38.1787 75.3262 38.8034 74.7886 39.5219 74.4057C40.2403 74.0228 41.0347 73.8042 41.8478 73.7655C42.6608 73.7269 43.4723 73.8692 44.2238 74.1822C44.4499 74.2778 44.669 74.3889 44.8796 74.5149L67.2584 64.4607L67.8871 58.3863L77.5337 58.1279L77.4698 68.2406C77.4581 69.4122 77.0692 70.5489 76.3608 71.4817C75.6525 72.4145 74.6623 73.0939 73.5375 73.4188L47.368 80.8727C47.3175 81.0457 47.258 81.2159 47.1897 81.3827C46.7698 82.3864 46.0634 83.2438 45.1588 83.8475C44.2542 84.4511 43.1918 84.7743 42.1045 84.7764L42.102 84.7768Z" fill="#FEB8B8"/>
<path d="M76.7167 63.0831C76.4423 63.222 76.1424 63.3031 75.8355 63.3215L68.8461 63.7515C68.2504 63.7875 67.6649 63.5855 67.2178 63.19C66.7708 62.7944 66.4988 62.2376 66.4614 61.6415L65.6944 49.1501C65.6025 47.6272 66.1184 46.13 67.1287 44.9875C68.1391 43.8451 69.5613 43.1507 71.0829 43.057C72.6045 42.9633 74.101 43.478 75.2437 44.4879C76.3864 45.4978 77.0818 46.9204 77.1771 48.4431L77.9445 60.9345C77.9711 61.3733 77.8692 61.8104 77.6512 62.192C77.4333 62.5737 77.1087 62.8833 76.7174 63.0831H76.7167Z" fill="#CCCCCC"/>
<path d="M62.6425 82.5354H20.895C20.5449 82.5354 20.261 82.8195 20.261 83.17V85.4049C20.261 85.7553 20.5449 86.0394 20.895 86.0394H62.6425C62.9927 86.0394 63.2766 85.7553 63.2766 85.4049V83.17C63.2766 82.8195 62.9927 82.5354 62.6425 82.5354Z" fill="#3F3D56"/>
<path d="M4.21979 82.786V58.2568C4.22083 57.3941 4.56369 56.5671 5.17318 55.9571C5.78267 55.3471 6.60902 55.004 7.47096 55.0029H51.9871C52.8491 55.0039 53.6755 55.347 54.285 55.957C54.8945 56.567 55.2374 57.3941 55.2383 58.2568V82.786C55.2374 83.6486 54.8945 84.4757 54.285 85.0857C53.6755 85.6957 52.8491 86.0389 51.9871 86.0398H7.47096C6.60902 86.0388 5.78267 85.6956 5.17318 85.0856C4.56369 84.4756 4.22083 83.6486 4.21979 82.786Z" fill="#3F3D56"/>
<path d="M30.2645 73.5263C31.922 73.5263 33.2657 72.1815 33.2657 70.5226C33.2657 68.8637 31.922 67.519 30.2645 67.519C28.607 67.519 27.2633 68.8637 27.2633 70.5226C27.2633 72.1815 28.607 73.5263 30.2645 73.5263Z" fill="white"/>
</svg>
