<svg width="230" height="243" viewBox="0 0 230 243" fill="none" xmlns="http://www.w3.org/2000/svg">
<path d="M52.9952 154.082C52.6081 154.1 52.2248 153.999 51.8973 153.791C51.5699 153.584 51.3141 153.281 51.1646 152.924C51.0151 152.567 50.9791 152.172 51.0615 151.793C51.1439 151.415 51.3408 151.071 51.6253 150.808C51.673 150.618 51.7072 150.482 51.7548 150.293C51.7378 150.252 51.7206 150.211 51.7034 150.17C51.3134 149.249 50.6598 148.464 49.8248 147.913C48.9898 147.362 48.0107 147.07 47.0103 147.074C46.0099 147.078 45.0329 147.377 44.2021 147.934C43.3712 148.491 42.7235 149.281 42.3403 150.204C40.809 153.891 38.8593 157.584 38.3792 161.481C38.1678 163.204 38.2569 164.951 38.6428 166.643C35.046 158.801 33.1783 150.278 33.1663 141.651C33.1655 139.486 33.2859 137.323 33.5267 135.172C33.7258 133.408 34.002 131.657 34.3552 129.918C36.283 120.485 40.4221 111.643 46.4325 104.119C49.3415 102.533 51.6941 100.093 53.1732 97.1291C53.709 96.0636 54.0877 94.9262 54.2975 93.7523C53.9694 93.7953 53.6359 93.8222 53.3077 93.8437C53.2055 93.849 53.0979 93.8544 52.9957 93.8598L52.9571 93.8615C52.5965 93.8777 52.2388 93.7894 51.9272 93.6071C51.6157 93.4248 51.3634 93.1564 51.2009 92.8342C51.0384 92.512 50.9725 92.1497 51.0113 91.7909C51.05 91.4322 51.1916 91.0922 51.4191 90.8121C51.5608 90.6378 51.7025 90.4636 51.8444 90.2895C52.0596 90.0206 52.2801 89.7571 52.4953 89.4883C52.5202 89.4627 52.5435 89.4358 52.5653 89.4076C52.8128 89.1011 53.0602 88.8 53.3077 88.4935C52.856 87.7928 52.2484 87.2057 51.5324 86.7783C49.0524 85.3265 45.6309 86.332 43.8395 88.5742C42.0427 90.8164 41.7038 93.962 42.3278 96.7634C42.9415 99.1472 43.9566 101.409 45.3297 103.452C45.1951 103.625 45.0553 103.791 44.9208 103.963C42.4623 107.123 40.3195 110.516 38.5232 114.094C38.96 110.086 38.4386 106.031 37.0019 102.264C35.5458 98.7532 32.8166 95.7963 30.4132 92.7611C27.5264 89.1154 21.6066 90.7064 21.098 95.328C21.0931 95.3727 21.0883 95.4175 21.0836 95.4622C21.4406 95.6635 21.79 95.8771 22.1319 96.1031C22.5614 96.39 22.8942 96.7998 23.0867 97.2789C23.2793 97.758 23.3225 98.2841 23.2107 98.7882C23.099 99.2923 22.8375 99.7509 22.4606 100.104C22.0836 100.457 21.6088 100.688 21.0982 100.767L21.0459 100.775C21.1731 102.061 21.3979 103.335 21.7184 104.587C22.647 108.082 24.288 111.347 26.5384 114.179C28.7888 117.01 31.6002 119.346 34.7963 121.041C35.0061 121.148 35.2106 121.256 35.4204 121.358C33.6156 126.47 32.4836 131.795 32.0527 137.199C31.8088 140.387 31.8231 143.589 32.0957 146.775L32.0796 146.662C31.3909 143.12 29.5002 139.923 26.7268 137.613C22.6076 134.231 16.7878 132.985 12.3439 130.267C11.8716 129.963 11.3225 129.802 10.7612 129.8C10.2 129.799 9.65007 129.958 9.17631 130.259C8.70256 130.56 8.32473 130.99 8.08741 131.498C7.85008 132.006 7.76315 132.572 7.83687 133.128C7.84283 133.167 7.84889 133.207 7.85505 133.247C8.5175 133.516 9.16251 133.827 9.78632 134.177C10.1433 134.378 10.4928 134.592 10.8347 134.818C11.2642 135.105 11.597 135.514 11.7895 135.994C11.982 136.473 12.0252 136.999 11.9135 137.503C11.8018 138.007 11.5403 138.466 11.1633 138.819C10.7864 139.172 10.3115 139.403 9.80096 139.481L9.74866 139.489C9.71099 139.495 9.67872 139.5 9.64112 139.505C10.773 142.207 12.3617 144.693 14.3375 146.856C16.7783 149.474 19.7284 151.566 23.0068 153.003C26.2852 154.441 29.8229 155.194 33.403 155.217H33.4084C34.3802 159.438 35.7883 163.547 37.6099 167.477H52.6191C52.6729 167.31 52.7213 167.138 52.7697 166.971C51.3805 167.059 49.9857 166.976 48.6166 166.724C49.7302 165.358 50.8438 163.982 51.9574 162.616C51.9822 162.59 52.0056 162.563 52.0273 162.535C52.5922 161.836 53.1624 161.143 53.7273 160.444L53.7276 160.443C53.7577 158.3 53.5117 156.163 52.9957 154.083L52.9952 154.082Z" fill="#F2F2F2"/>
<path d="M230 167.68C230 167.761 229.984 167.842 229.953 167.918C229.922 167.994 229.876 168.062 229.818 168.12C229.76 168.178 229.692 168.224 229.616 168.255C229.54 168.286 229.459 168.302 229.377 168.302H0.622513C0.457413 168.302 0.29908 168.236 0.182337 168.12C0.0655931 168.003 0 167.845 0 167.68C0 167.515 0.0655931 167.356 0.182337 167.24C0.29908 167.123 0.457413 167.057 0.622513 167.057H229.377C229.459 167.057 229.54 167.073 229.616 167.104C229.692 167.135 229.76 167.181 229.818 167.239C229.876 167.297 229.922 167.366 229.953 167.441C229.984 167.517 230 167.598 230 167.68Z" fill="#1E293B"/>
<path d="M119.785 87.7539C118.924 87.5478 118.027 87.5331 117.159 87.7107C116.292 87.8883 115.473 88.2539 114.762 88.7818C114.051 89.3097 113.464 89.987 113.043 90.7661C112.622 91.5451 112.377 92.407 112.326 93.2909L99.2485 97.8398L100.076 106.457L118.453 99.774C119.945 99.7623 121.38 99.2042 122.487 98.2055C123.595 97.2068 124.297 95.8368 124.461 94.3551C124.625 92.8735 124.24 91.3831 123.378 90.1664C122.516 88.9498 121.238 88.0914 119.785 87.7539Z" fill="#FFB6B6"/>
<path d="M98.4721 112.801C93.2723 116.423 84.1114 118.277 71.6437 118.192C70.9534 118.193 70.2703 118.052 69.6376 117.776C69.0049 117.5 68.4363 117.096 67.968 116.59C64.6319 113.117 64.7622 105.191 64.783 104.426L61.1264 90.652C61.048 90.4414 59.0241 84.7898 61.0832 80.8433C61.5213 80.019 62.1327 79.2992 62.8755 78.7334C63.6183 78.1676 64.4748 77.7692 65.3862 77.5656C73.1192 75.5146 80.3885 96.2041 81.3123 98.938L92.1644 97.0908L99.6588 96.7827L107.284 92.5761L111.576 102.845L100.953 110.605C100.22 111.437 99.3865 112.174 98.4721 112.801Z" fill="#2F2E41"/>
<path d="M119.411 226.689L127.405 227.062L132.65 196.422L120.852 195.871L119.411 226.689Z" fill="#FFB6B6"/>
<path d="M117.613 222.655L130.285 222.491L130.032 227.903L141.658 236.758C142.232 237.195 142.652 237.804 142.855 238.496C143.058 239.189 143.035 239.928 142.788 240.606C142.541 241.284 142.084 241.866 141.483 242.266C140.882 242.666 140.169 242.863 139.448 242.829L124.404 242.126L122.061 236.652L120.798 241.958L115.126 241.693L117.613 222.655Z" fill="#2F2E41"/>
<path d="M202.872 160.9L205.784 153.45L178.419 138.677L164.595 147.362L202.872 160.9Z" fill="#FFB6B6"/>
<path d="M198.473 161.312L202.373 149.26L207.422 151.231L219.535 143.056C220.134 142.652 220.845 142.45 221.567 142.479C222.288 142.508 222.981 142.767 223.545 143.218C224.109 143.669 224.514 144.288 224.7 144.985C224.887 145.682 224.846 146.42 224.583 147.092L219.102 161.113L213.164 161.58L217.789 164.473L215.722 169.76L198.473 161.312Z" fill="#2F2E41"/>
<path d="M45.6662 138.726C45.6662 138.726 48.9861 159.911 64.6797 161.479C80.3733 163.048 94.8394 155.981 94.8394 155.981L138.781 142.454C138.781 142.454 185.52 155.728 193.367 157.819C193.367 157.819 198.78 145.54 198.598 144.748C196.929 137.449 194.755 142.386 194.755 142.386L145.059 120.426C145.059 120.426 137.212 118.335 123.611 124.086C110.01 129.838 73.5727 143.702 73.5727 143.702L45.6662 138.726Z" fill="#2F2E41"/>
<path d="M45.8474 137.428C45.8474 137.428 43.2301 162.806 58.5176 166.683C73.0496 170.368 93.0948 166.587 93.0948 166.587L116.992 164.094C116.992 164.094 118.038 194.784 118.038 209.947C122.893 210.606 127.786 210.955 132.685 210.992C133.731 210.992 133.801 210.444 133.801 210.444L135.827 157.403C135.969 155.097 135.627 152.787 134.822 150.621C134.017 148.455 132.767 146.481 131.153 144.827C129.539 143.173 127.597 141.875 125.451 141.016C123.305 140.158 121.002 139.758 118.692 139.843C117.564 139.886 116.381 139.965 115.142 140.082C100.441 141.491 82.1907 138.496 82.1907 138.496L45.8474 137.428Z" fill="#2F2E41"/>
<path d="M88.2506 100.612C88.2506 100.612 94.4568 138.124 90.2626 141.119C86.0685 144.113 80.3168 144.125 80.3168 144.125L78.9794 123.413L88.2506 100.612Z" fill="#2F2E41"/>
<path d="M77.8996 54.5412L86.1976 62.4226C90.0546 66.0858 92.6111 70.9062 93.4796 76.1529C94.3481 81.3995 93.4811 86.7861 91.0102 91.4958L87.0436 99.0563L77.8996 54.5412Z" fill="#2F2E41"/>
<path d="M76.0439 55.8664L87.2877 68.6673C89.7554 71.4767 91.2846 74.9856 91.6622 78.705C91.8337 80.3939 91.7647 82.0986 91.4575 83.7681L87.2201 106.792L84.0351 140.042C84.0351 140.042 59.4468 147.488 56.93 135.99C54.4133 124.491 76.0439 55.8664 76.0439 55.8664Z" fill="#6C63FF"/>
<path d="M65.4898 143.167C49.3264 140.474 45.3669 139.94 45.1203 139.846L44.8732 139.751L46.4934 130.035L53.3345 113.232C53.7788 107.736 56.6603 100.289 55.0119 94.3075C50.2197 76.9186 58.0055 52.346 61.566 50.4636L71.4368 43.9957L74.9017 47.1709L80.9095 55.577C85.8525 77.5851 89.2664 98.098 89.1004 99.3518L86.0496 120.897L82.4547 129.162C71.5488 134.422 78.8823 145.397 65.4898 143.167Z" fill="#2F2E41"/>
<path d="M94.7533 127.36L120.132 120.574L122.367 120.044L123.96 119.666L125.817 119.227L125.832 119.224C126.101 119.162 126.385 119.209 126.62 119.355L136.043 130.647C136.128 130.7 136.204 130.767 136.265 130.846C136.29 130.867 136.313 130.891 136.332 130.917C136.436 131.059 136.504 131.225 136.529 131.399C136.554 131.574 136.536 131.752 136.476 131.917C136.416 132.083 136.316 132.232 136.186 132.35C136.055 132.468 135.897 132.552 135.726 132.595L97.866 141.304C97.6698 141.348 97.465 141.336 97.2754 141.269C97.0857 141.202 96.9188 141.083 96.794 140.925L96.4099 140.428L94.3148 130.344L94.1657 129.035C94.0706 128.913 94.0036 128.773 93.9693 128.623C93.9084 128.352 93.9564 128.067 94.103 127.831C94.2497 127.595 94.4832 127.426 94.7533 127.36Z" fill="#E6E6E6"/>
<path opacity="0.17" d="M96.4097 140.427L96.7961 140.926C96.9206 141.083 97.087 141.202 97.2762 141.269C97.4653 141.336 97.6695 141.348 97.8653 141.304L135.726 132.596C135.897 132.553 136.055 132.469 136.186 132.351C136.317 132.233 136.417 132.084 136.477 131.918C136.536 131.753 136.554 131.575 136.529 131.4C136.504 131.226 136.436 131.06 136.331 130.918C136.313 130.892 136.291 130.868 136.265 130.848L96.4097 140.427Z" fill="black"/>
<path d="M125.628 119.153L124.943 70.9111C124.914 70.6206 125.002 70.3307 125.187 70.105L130.038 60.013L130.542 59.401C130.73 59.1772 130.997 59.0357 131.288 59.0069L132.344 58.9085C132.635 58.8799 132.925 58.968 133.151 59.1534C133.377 59.3388 133.52 59.6062 133.548 59.897L134.499 110.941L134.5 110.945L134.971 115.86L135.53 121.696L135.531 121.703L136.403 130.783C136.419 130.939 136.401 131.096 136.351 131.243C136.301 131.391 136.219 131.526 136.111 131.639C136.006 131.754 135.878 131.845 135.735 131.906C135.592 131.967 135.438 131.997 135.282 131.994L134.595 131.98C134.332 131.974 134.079 131.874 133.882 131.699L133.498 131.354L133.32 131.192L125.992 119.87C125.784 119.686 125.654 119.43 125.628 119.153Z" fill="#E6E6E6"/>
<path opacity="0.17" d="M130.04 60.0129L133.319 131.194L133.498 131.354L133.881 131.698C134.078 131.873 134.331 131.973 134.595 131.979L135.283 131.993C135.438 131.996 135.593 131.966 135.736 131.904C135.879 131.843 136.008 131.753 136.114 131.639C136.219 131.524 136.3 131.389 136.35 131.242C136.399 131.094 136.418 130.938 136.403 130.783L133.547 59.8985C133.519 59.6076 133.377 59.3397 133.151 59.1537C132.926 58.9677 132.635 58.8788 132.344 58.9066L131.286 59.0079C131.143 59.0211 131.003 59.0628 130.876 59.1305C130.748 59.1982 130.636 59.2906 130.544 59.4022L130.04 60.0129Z" fill="black"/>
<path d="M130.316 62.8892L125.879 73.8354L126.428 106.581L131.231 113.524L130.316 62.8892Z" fill="#6C63FF"/>
<path d="M97.6781 127.071C97.4353 127.141 97.2299 127.303 97.1071 127.524C96.9843 127.744 96.9541 128.005 97.0232 128.247L98.9777 136.389L100.809 135.868L98.8545 127.726C98.7853 127.483 98.6225 127.278 98.4019 127.155C98.1813 127.033 97.9209 127.002 97.6781 127.071Z" fill="#2F2E41"/>
<path d="M101.341 126.029C101.098 126.098 100.893 126.261 100.77 126.481C100.647 126.702 100.617 126.962 100.686 127.205L101.103 128.669L102.935 128.148L102.517 126.684C102.448 126.441 102.285 126.236 102.065 126.113C101.844 125.99 101.584 125.96 101.341 126.029Z" fill="#2F2E41"/>
<path d="M105.004 124.987C104.761 125.056 104.556 125.219 104.433 125.439C104.31 125.66 104.28 125.92 104.349 126.162L104.766 127.627L106.597 127.106L106.18 125.641C106.111 125.399 105.948 125.193 105.728 125.07C105.507 124.948 105.247 124.918 105.004 124.987Z" fill="#2F2E41"/>
<path d="M108.666 123.944C108.424 124.013 108.218 124.176 108.095 124.397C107.973 124.617 107.942 124.877 108.012 125.12L108.429 126.584L110.26 126.063L109.843 124.599C109.774 124.356 109.611 124.151 109.39 124.028C109.17 123.905 108.909 123.875 108.666 123.944Z" fill="#2F2E41"/>
<path d="M112.329 122.902C112.086 122.971 111.881 123.134 111.758 123.354C111.635 123.575 111.605 123.835 111.674 124.078L112.092 125.542L113.923 125.021L113.506 123.556C113.436 123.314 113.274 123.108 113.053 122.986C112.832 122.863 112.572 122.833 112.329 122.902Z" fill="#2F2E41"/>
<path d="M115.992 121.859C115.749 121.928 115.544 122.091 115.421 122.312C115.298 122.532 115.268 122.792 115.337 123.035L115.754 124.5L117.586 123.978L117.169 122.514C117.099 122.271 116.936 122.066 116.716 121.943C116.495 121.82 116.235 121.79 115.992 121.859Z" fill="#2F2E41"/>
<path d="M119.655 120.817C119.412 120.886 119.207 121.049 119.084 121.269C118.961 121.49 118.931 121.75 119 121.993L119.417 123.457L121.248 122.936L120.831 121.471C120.762 121.229 120.599 121.023 120.379 120.901C120.158 120.778 119.898 120.748 119.655 120.817Z" fill="#2F2E41"/>
<path d="M123.318 119.774C123.075 119.844 122.869 120.006 122.747 120.227C122.624 120.447 122.594 120.707 122.663 120.95L123.08 122.415L124.911 121.893L124.494 120.429C124.425 120.186 124.262 119.981 124.041 119.858C123.821 119.735 123.561 119.705 123.318 119.774Z" fill="#2F2E41"/>
<path d="M102.11 129.368C101.867 129.437 101.661 129.6 101.539 129.82C101.416 130.041 101.386 130.301 101.455 130.544L101.872 132.008L103.703 131.487L103.286 130.022C103.217 129.78 103.054 129.574 102.833 129.452C102.613 129.329 102.352 129.299 102.11 129.368Z" fill="#2F2E41"/>
<path d="M105.772 128.325C105.53 128.394 105.324 128.557 105.201 128.778C105.079 128.998 105.048 129.258 105.117 129.501L105.535 130.965L107.366 130.444L106.949 128.98C106.88 128.737 106.717 128.532 106.496 128.409C106.276 128.286 106.015 128.256 105.772 128.325Z" fill="#2F2E41"/>
<path d="M109.435 127.283C109.192 127.352 108.987 127.515 108.864 127.735C108.741 127.956 108.711 128.216 108.78 128.459L109.197 129.923L111.029 129.402L110.612 127.937C110.542 127.695 110.38 127.489 110.159 127.367C109.938 127.244 109.678 127.214 109.435 127.283Z" fill="#2F2E41"/>
<path d="M113.098 126.24C112.855 126.31 112.65 126.472 112.527 126.693C112.404 126.913 112.374 127.173 112.443 127.416L112.86 128.881L114.692 128.359L114.274 126.895C114.205 126.652 114.042 126.447 113.822 126.324C113.601 126.201 113.341 126.171 113.098 126.24Z" fill="#2F2E41"/>
<path d="M116.761 125.198C116.518 125.267 116.313 125.43 116.19 125.65C116.067 125.871 116.037 126.131 116.106 126.374L116.523 127.838L118.354 127.317L117.937 125.853C117.868 125.61 117.705 125.405 117.485 125.282C117.264 125.159 117.004 125.129 116.761 125.198Z" fill="#2F2E41"/>
<path d="M120.424 124.155C120.181 124.225 119.975 124.387 119.853 124.608C119.73 124.828 119.7 125.089 119.769 125.331L120.186 126.796L122.017 126.274L121.6 124.81C121.531 124.567 121.368 124.362 121.147 124.239C120.927 124.117 120.666 124.086 120.424 124.155Z" fill="#2F2E41"/>
<path d="M124.086 123.113C123.844 123.182 123.638 123.345 123.515 123.565C123.393 123.786 123.362 124.046 123.431 124.289L123.849 125.753L125.68 125.232L125.263 123.768C125.194 123.525 125.031 123.32 124.81 123.197C124.59 123.074 124.329 123.044 124.086 123.113Z" fill="#2F2E41"/>
<path d="M102.878 132.706C102.635 132.775 102.43 132.938 102.307 133.159C102.184 133.379 102.154 133.639 102.223 133.882L102.64 135.347L104.472 134.825L104.055 133.361C103.985 133.118 103.823 132.913 103.602 132.79C103.381 132.667 103.121 132.637 102.878 132.706Z" fill="#2F2E41"/>
<path d="M106.541 131.664C106.298 131.733 106.093 131.896 105.97 132.116C105.847 132.337 105.817 132.597 105.886 132.84L106.303 134.304L108.135 133.783L107.718 132.318C107.648 132.076 107.485 131.87 107.265 131.748C107.044 131.625 106.784 131.595 106.541 131.664Z" fill="#2F2E41"/>
<path d="M110.204 130.621C109.961 130.691 109.756 130.853 109.633 131.074C109.51 131.294 109.48 131.555 109.549 131.797L109.966 133.262L111.798 132.74L111.38 131.276C111.311 131.033 111.148 130.828 110.928 130.705C110.707 130.583 110.447 130.552 110.204 130.621Z" fill="#2F2E41"/>
<path d="M113.867 129.579C113.624 129.648 113.418 129.811 113.296 130.031C113.173 130.252 113.143 130.512 113.212 130.755L113.629 132.219L115.46 131.698L115.043 130.234C114.974 129.991 114.811 129.786 114.59 129.663C114.37 129.54 114.11 129.51 113.867 129.579Z" fill="#2F2E41"/>
<path d="M117.529 128.536C117.287 128.606 117.081 128.768 116.958 128.989C116.836 129.209 116.805 129.47 116.875 129.712L117.292 131.177L119.123 130.656L118.706 129.191C118.637 128.948 118.474 128.743 118.253 128.62C118.033 128.498 117.772 128.467 117.529 128.536Z" fill="#2F2E41"/>
<path d="M121.192 127.494C120.949 127.563 120.744 127.726 120.621 127.946C120.498 128.167 120.468 128.427 120.537 128.67L120.954 130.134L122.786 129.613L122.369 128.149C122.299 127.906 122.137 127.701 121.916 127.578C121.695 127.455 121.435 127.425 121.192 127.494Z" fill="#2F2E41"/>
<path d="M124.855 126.452C124.612 126.521 124.407 126.684 124.284 126.904C124.161 127.125 124.131 127.385 124.2 127.627L124.617 129.092L126.449 128.571L126.031 127.106C125.962 126.864 125.799 126.658 125.579 126.535C125.358 126.413 125.098 126.383 124.855 126.452Z" fill="#2F2E41"/>
<path d="M114.094 120.133C113.603 119.397 112.956 118.776 112.199 118.317C111.442 117.857 110.593 117.568 109.712 117.472C108.832 117.375 107.941 117.473 107.102 117.758C106.263 118.042 105.497 118.508 104.858 119.12L92.1764 113.563L86.9182 120.443L104.937 128.039C106.038 129.044 107.47 129.611 108.961 129.632C110.453 129.652 111.9 129.126 113.029 128.151C114.157 127.177 114.889 125.822 115.085 124.345C115.282 122.867 114.929 121.369 114.094 120.133Z" fill="#FFB6B6"/>
<path d="M81.4253 124.002C75.1485 123.122 67.1725 118.252 58.0915 109.713C57.5843 109.245 57.1798 108.677 56.9037 108.044C56.6276 107.412 56.4859 106.729 56.4876 106.039C56.4054 101.226 61.8951 95.5047 62.4314 94.9576L69.1249 82.3755C69.2108 82.1678 71.5735 76.6492 75.7686 75.1564C76.6507 74.85 77.5888 74.7381 78.5183 74.8284C79.4478 74.9187 80.3468 75.2091 81.1534 75.6795C88.2175 79.4338 79.4653 99.5416 78.2819 102.174L87.4935 108.198L93.1966 113.068L101.648 115.168L97.8063 125.614L84.738 124.079C83.6349 124.19 82.5222 124.164 81.4253 124.002Z" fill="#2F2E41"/>
<path d="M93.8026 28.8305C94.8605 20.0047 88.716 12.0114 80.0785 10.977C71.4409 9.94265 63.5811 16.2588 62.5232 25.0846C61.4652 33.9104 67.6097 41.9036 76.2472 42.938C84.8848 43.9724 92.7446 37.6563 93.8026 28.8305Z" fill="#FFB6B6"/>
<path d="M37.1435 15.0151C40.1733 12.2348 41.93 8.27503 44.477 5.01088C47.024 1.7467 51.0998 -0.959643 54.9087 0.327088C57.5343 1.21412 59.331 3.8388 60.0673 6.61333C60.8033 9.38781 60.6507 12.332 60.4924 15.2153C61.132 9.32769 65.6909 4.09176 71.2547 2.85495C76.818 1.6181 82.9563 4.476 85.7447 9.60145C87.3712 8.42055 89.3746 7.87716 91.3753 8.07427C93.3759 8.27139 95.2347 9.19531 96.5992 10.6709C99.2785 13.7108 99.3309 18.8923 96.7143 22.0471C94.0978 25.202 89.1659 25.9034 85.8863 23.5871L84.5098 24.5786C84.9152 27.1018 83.2164 29.8216 80.8313 30.4675C78.8972 30.9914 76.3077 30.5555 75.3854 32.4079C74.7409 33.7022 75.4696 35.2533 76.3042 36.4072C77.1387 37.561 78.1488 38.7702 78.0916 40.2217C78.0056 42.4119 75.5807 43.6629 73.487 43.8764C68.4386 44.3913 63.2566 41.4626 60.9429 36.7869C60.8983 36.6967 60.849 36.6059 60.7949 36.5143C59.4487 34.292 58.5701 31.8186 58.2125 29.2453C57.855 26.6721 58.0262 24.053 58.7155 21.5481C58.9951 20.5649 58.9238 19.8002 58.2609 19.4801C55.3957 18.0963 46.7656 19.2469 43.9986 20.8896C41.2314 22.5322 38.8937 24.8646 36.2049 26.644C33.5158 28.4234 30.2141 29.649 27.1829 28.7137C24.7552 27.9647 22.8597 25.9109 21.6999 23.5684C20.5403 21.2261 20.0265 18.596 19.596 15.9919C24.7043 19.818 32.3744 19.391 37.1435 15.0151Z" fill="#2F2E41"/>
<path d="M34.7615 140.079L34.7695 140.068L34.7615 140.09V140.079Z" fill="#2F2E41"/>
</svg>
