<svg width="50" height="50" viewBox="0 0 50 50" fill="none" xmlns="http://www.w3.org/2000/svg">
<rect width="50" height="50" rx="8" fill="#F3F4F6"/>
<path fill-rule="evenodd" clip-rule="evenodd" d="M21.7049 8H21.9438V8.00156C31.4644 8.12617 39.1429 15.6889 39.1429 25C39.1429 34.3111 31.4644 41.8738 21.9438 41.9984V42H21.7254L21.7049 42L21.6845 42H10V35.4794H21.466V35.4666C21.6243 35.4751 21.7836 35.4795 21.9438 35.4795C27.2209 35.4795 31.4988 30.7877 31.4988 25C31.4988 19.2124 27.2209 14.5206 21.9438 14.5206C21.7836 14.5206 21.6243 14.5249 21.466 14.5334V14.5205H10V8H21.7049ZM10 15.452H20.5105V17.7808H16.6886V28.9589H13.8221V17.7808H10V15.452Z" fill="#0F172A"/>
</svg>
